<svg xmlns="http://www.w3.org/2000/svg" width="64" height="64" viewBox="0 0 64 64" role="img" aria-labelledby="ddd-favicon-title">
  <title id="ddd-favicon-title">Deep Dish Diff</title>
  <defs>
    <clipPath id="ddd-favicon-pizza-face">
      <circle cx="32" cy="32" r="17"/>
    </clipPath>
    <radialGradient id="ddd-favicon-cheese" cx="36%" cy="32%" r="70%">
      <stop offset="0%" stop-color="#FFFCF0"/>
      <stop offset="48%" stop-color="#FFEAA0"/>
      <stop offset="100%" stop-color="#E8B84A"/>
    </radialGradient>
    <radialGradient id="ddd-favicon-pepperoni" cx="34%" cy="30%" r="75%">
      <stop offset="0%" stop-color="#F04E53"/>
      <stop offset="55%" stop-color="#C52B2D"/>
      <stop offset="100%" stop-color="#8E1719"/>
    </radialGradient>
    <linearGradient id="ddd-favicon-crust" x1="32" y1="8" x2="32" y2="56" gradientUnits="userSpaceOnUse">
      <stop offset="0%" stop-color="#9A5E34"/>
      <stop offset="55%" stop-color="#6B3F1F"/>
      <stop offset="100%" stop-color="#452610"/>
    </linearGradient>
  </defs>
  <rect x="4" y="4" width="56" height="56" rx="14" fill="#111417"/>
  <circle cx="32" cy="32" r="24.2" fill="url(#ddd-favicon-crust)"/>
  <path d="M32 11.2C20.2 11.2 10.6 20.8 10.6 32.6C10.6 44.4 20.2 54 32 54C43.8 54 53.4 44.4 53.4 32.6C53.4 20.8 43.8 11.2 32 11.2ZM32 14.4C41.9 14.4 50.2 22.7 50.2 32.6C50.2 42.5 41.9 50.8 32 50.8C22.1 50.8 13.8 42.5 13.8 32.6C13.8 22.7 22.1 14.4 32 14.4Z" fill="#D89834" opacity="0.78"/>
  <circle cx="32" cy="32" r="18.4" fill="url(#ddd-favicon-cheese)"/>
  <g clip-path="url(#ddd-favicon-pizza-face)">
    <path d="M32 15C22.8 15 15.6 22.2 15.6 31.4C15.6 40.6 22.8 47.8 32 47.8Z" fill="#C52B2D" opacity="0.62"/>
    <path d="M32 15C41.2 15 48.4 22.2 48.4 31.4C48.4 40.6 41.2 47.8 32 47.8Z" fill="#2D8B4D" opacity="0.52"/>
    <circle cx="23" cy="29" r="3.4" fill="url(#ddd-favicon-pepperoni)"/>
    <circle cx="23" cy="29" r="3.4" fill="none" stroke="#761418" stroke-width="0.65" opacity="0.55"/>
    <circle cx="24.8" cy="39.6" r="3" fill="url(#ddd-favicon-pepperoni)"/>
    <circle cx="24.8" cy="39.6" r="3" fill="none" stroke="#761418" stroke-width="0.6" opacity="0.5"/>
    <ellipse cx="45.6" cy="27.2" rx="1.85" ry="3.6" fill="#2D8B4D" opacity="0.88" transform="rotate(30 45.6 27.2)"/>
    <ellipse cx="46.2" cy="38.4" rx="1.75" ry="3.4" fill="#2D8B4D" opacity="0.82" transform="rotate(-22 46.2 38.4)"/>
    <g fill="none" stroke="#FFFDF9" stroke-linecap="round" stroke-linejoin="round" opacity="0.95">
      <path d="M20.2 25.6H27" stroke-width="2.6"/>
      <path d="M20.2 37.8H27" stroke-width="2.6"/>
      <path d="M38.6 25.6H45.4M42 22.4V28.8" stroke-width="2.4"/>
      <path d="M38.5 38.4H45.5M42 35.2V41.6" stroke-width="2.4"/>
    </g>
  </g>
  <circle cx="32" cy="13" r="1.3" fill="#E8B04A" opacity="0.72"/>
  <circle cx="45.2" cy="15.8" r="1.1" fill="#E8B04A" opacity="0.58"/>
  <circle cx="18.8" cy="15.8" r="1" fill="#E8B04A" opacity="0.54"/>
  <path d="M32 14.7L35.7 23.2L31.3 31.6L35.6 40.8L32 49.3" fill="none" stroke="#F0BE3F" stroke-width="4" stroke-linecap="round" stroke-linejoin="round"/>
</svg>
